<mxfile host="app.diagrams.net" modified="2023-11-17T16:13:40.102Z" agent="Mozilla/5.0 (Windows NT 10.0; Win64; x64) AppleWebKit/537.36 (KHTML, like Gecko) Chrome/119.0.0.0 Safari/537.36" etag="1HbYqKWAxEFmSrzHIZlq" version="22.1.2" type="device">
  <diagram name="Trang-1" id="pPHw5bo-YjagF7NnJY1_">
    <mxGraphModel dx="1235" dy="1807" grid="1" gridSize="10" guides="1" tooltips="1" connect="1" arrows="1" fold="1" page="1" pageScale="1" pageWidth="827" pageHeight="1169" math="0" shadow="0">
      <root>
        <mxCell id="0" />
        <mxCell id="1" parent="0" />
        <mxCell id="xvoymXoU0VaYq1-w-mL5-1" value="" style="rounded=0;whiteSpace=wrap;html=1;" parent="1" vertex="1">
          <mxGeometry x="240" y="190" width="380" height="210" as="geometry" />
        </mxCell>
        <mxCell id="hLbu3QlfQWP0Bb9gRY2X-2" value="" style="rounded=0;whiteSpace=wrap;html=1;" parent="1" vertex="1">
          <mxGeometry x="1040" y="200" width="240" height="90" as="geometry" />
        </mxCell>
        <mxCell id="hLbu3QlfQWP0Bb9gRY2X-3" value="" style="rounded=0;whiteSpace=wrap;html=1;" parent="1" vertex="1">
          <mxGeometry x="1040" y="310" width="240" height="90" as="geometry" />
        </mxCell>
        <mxCell id="hLbu3QlfQWP0Bb9gRY2X-4" value="" style="endArrow=classic;startArrow=classic;html=1;rounded=0;" parent="1" edge="1">
          <mxGeometry width="50" height="50" relative="1" as="geometry">
            <mxPoint x="240" y="140" as="sourcePoint" />
            <mxPoint x="1280" y="140" as="targetPoint" />
          </mxGeometry>
        </mxCell>
        <mxCell id="hLbu3QlfQWP0Bb9gRY2X-5" value="" style="endArrow=classic;startArrow=classic;html=1;rounded=0;" parent="1" edge="1">
          <mxGeometry width="50" height="50" relative="1" as="geometry">
            <mxPoint x="180" y="400" as="sourcePoint" />
            <mxPoint x="180" y="190" as="targetPoint" />
          </mxGeometry>
        </mxCell>
        <mxCell id="hLbu3QlfQWP0Bb9gRY2X-6" value="&lt;font style=&quot;font-size: 20px;&quot;&gt;50 M&lt;/font&gt;" style="text;html=1;strokeColor=none;fillColor=none;align=center;verticalAlign=middle;whiteSpace=wrap;rounded=0;" parent="1" vertex="1">
          <mxGeometry x="740" y="100" width="60" height="30" as="geometry" />
        </mxCell>
        <mxCell id="hLbu3QlfQWP0Bb9gRY2X-7" value="&lt;font style=&quot;font-size: 20px;&quot;&gt;15 M&lt;/font&gt;" style="text;html=1;strokeColor=none;fillColor=none;align=center;verticalAlign=middle;whiteSpace=wrap;rounded=0;rotation=0;" parent="1" vertex="1">
          <mxGeometry x="110" y="285" width="60" height="30" as="geometry" />
        </mxCell>
        <mxCell id="hLbu3QlfQWP0Bb9gRY2X-8" value="&lt;font style=&quot;font-size: 15px;&quot;&gt;Quality Assurance (QA)&lt;/font&gt;" style="text;html=1;strokeColor=none;fillColor=none;align=center;verticalAlign=middle;whiteSpace=wrap;rounded=0;" parent="1" vertex="1">
          <mxGeometry x="207" y="200" width="270" height="30" as="geometry" />
        </mxCell>
        <mxCell id="hLbu3QlfQWP0Bb9gRY2X-10" value="&lt;font style=&quot;font-size: 15px;&quot;&gt;Thang máy&lt;/font&gt;" style="text;html=1;strokeColor=none;fillColor=none;align=center;verticalAlign=middle;whiteSpace=wrap;rounded=0;" parent="1" vertex="1">
          <mxGeometry x="1060" y="230" width="200" height="30" as="geometry" />
        </mxCell>
        <mxCell id="hLbu3QlfQWP0Bb9gRY2X-11" value="&lt;font style=&quot;font-size: 15px;&quot;&gt;WC&lt;/font&gt;" style="text;html=1;strokeColor=none;fillColor=none;align=center;verticalAlign=middle;whiteSpace=wrap;rounded=0;" parent="1" vertex="1">
          <mxGeometry x="1060" y="340" width="200" height="30" as="geometry" />
        </mxCell>
        <mxCell id="hLbu3QlfQWP0Bb9gRY2X-14" value="&lt;font style=&quot;font-size: 20px;&quot;&gt;Tầng 4&lt;/font&gt;" style="text;html=1;strokeColor=#b85450;fillColor=#f8cecc;align=center;verticalAlign=middle;whiteSpace=wrap;rounded=0;" parent="1" vertex="1">
          <mxGeometry x="160" y="30" width="100" height="50" as="geometry" />
        </mxCell>
        <mxCell id="hLbu3QlfQWP0Bb9gRY2X-15" value="" style="endArrow=classic;startArrow=classic;html=1;rounded=0;strokeColor=#FFFFFF;" parent="1" edge="1">
          <mxGeometry width="50" height="50" relative="1" as="geometry">
            <mxPoint x="770" as="sourcePoint" />
            <mxPoint x="770" y="40" as="targetPoint" />
          </mxGeometry>
        </mxCell>
        <mxCell id="hLbu3QlfQWP0Bb9gRY2X-16" value="" style="endArrow=classic;startArrow=classic;html=1;rounded=0;strokeColor=#FFFFFF;" parent="1" edge="1">
          <mxGeometry width="50" height="50" relative="1" as="geometry">
            <mxPoint x="790" y="480" as="sourcePoint" />
            <mxPoint x="790" y="520" as="targetPoint" />
          </mxGeometry>
        </mxCell>
        <mxCell id="hLbu3QlfQWP0Bb9gRY2X-17" value="" style="endArrow=classic;startArrow=classic;html=1;rounded=0;strokeColor=#FFFFFF;" parent="1" edge="1">
          <mxGeometry width="50" height="50" relative="1" as="geometry">
            <mxPoint x="90" y="330" as="sourcePoint" />
            <mxPoint x="120" y="330" as="targetPoint" />
          </mxGeometry>
        </mxCell>
        <mxCell id="hLbu3QlfQWP0Bb9gRY2X-18" value="" style="endArrow=classic;startArrow=classic;html=1;rounded=0;strokeColor=#FFFFFF;" parent="1" edge="1">
          <mxGeometry width="50" height="50" relative="1" as="geometry">
            <mxPoint x="1300" y="310" as="sourcePoint" />
            <mxPoint x="1320" y="310" as="targetPoint" />
          </mxGeometry>
        </mxCell>
        <mxCell id="cIawQBJBCyzUcV7PF4F9-18" value="" style="rounded=0;whiteSpace=wrap;html=1;" parent="1" vertex="1">
          <mxGeometry x="635" y="190" width="380" height="210" as="geometry" />
        </mxCell>
        <mxCell id="cIawQBJBCyzUcV7PF4F9-19" value="&lt;font style=&quot;font-size: 15px;&quot;&gt;Finance&lt;/font&gt;" style="text;html=1;strokeColor=none;fillColor=none;align=center;verticalAlign=middle;whiteSpace=wrap;rounded=0;" parent="1" vertex="1">
          <mxGeometry x="570" y="200" width="270" height="30" as="geometry" />
        </mxCell>
        <mxCell id="cIawQBJBCyzUcV7PF4F9-31" style="rounded=0;orthogonalLoop=1;jettySize=auto;html=1;entryX=0.25;entryY=1;entryDx=0;entryDy=0;endArrow=none;endFill=0;dashed=1;strokeWidth=1;" parent="1" source="cIawQBJBCyzUcV7PF4F9-21" target="cIawQBJBCyzUcV7PF4F9-26" edge="1">
          <mxGeometry relative="1" as="geometry" />
        </mxCell>
        <mxCell id="cIawQBJBCyzUcV7PF4F9-21" value="" style="verticalLabelPosition=bottom;sketch=0;aspect=fixed;html=1;verticalAlign=top;strokeColor=none;align=center;outlineConnect=0;shape=mxgraph.citrix.laptop_2;" parent="1" vertex="1">
          <mxGeometry x="270" y="310" width="73.76" height="55" as="geometry" />
        </mxCell>
        <mxCell id="9sFVNQ1BYdqKN7KZvEyV-2" style="edgeStyle=orthogonalEdgeStyle;rounded=0;orthogonalLoop=1;jettySize=auto;html=1;endArrow=none;endFill=0;" parent="1" source="cIawQBJBCyzUcV7PF4F9-22" edge="1">
          <mxGeometry relative="1" as="geometry">
            <mxPoint x="445" y="390" as="targetPoint" />
          </mxGeometry>
        </mxCell>
        <mxCell id="cIawQBJBCyzUcV7PF4F9-22" value="" style="fontColor=#0066CC;verticalAlign=top;verticalLabelPosition=bottom;labelPosition=center;align=center;html=1;outlineConnect=0;fillColor=#CCCCCC;strokeColor=#6881B3;gradientColor=none;gradientDirection=north;strokeWidth=2;shape=mxgraph.networks.pc;" parent="1" vertex="1">
          <mxGeometry x="410" y="312.5" width="70" height="50" as="geometry" />
        </mxCell>
        <mxCell id="cIawQBJBCyzUcV7PF4F9-34" style="edgeStyle=orthogonalEdgeStyle;rounded=0;orthogonalLoop=1;jettySize=auto;html=1;entryX=0;entryY=0.5;entryDx=0;entryDy=0;exitX=0.75;exitY=0;exitDx=0;exitDy=0;exitPerimeter=0;" parent="1" source="cIawQBJBCyzUcV7PF4F9-23" target="cIawQBJBCyzUcV7PF4F9-35" edge="1">
          <mxGeometry relative="1" as="geometry">
            <mxPoint x="940" y="190" as="targetPoint" />
            <Array as="points">
              <mxPoint x="600" y="200" />
              <mxPoint x="1020" y="200" />
              <mxPoint x="1020" y="163" />
            </Array>
          </mxGeometry>
        </mxCell>
        <mxCell id="Lshlf3ugooddYHqgElno-1" style="edgeStyle=orthogonalEdgeStyle;rounded=0;orthogonalLoop=1;jettySize=auto;html=1;endArrow=none;endFill=0;entryX=0.996;entryY=0.951;entryDx=0;entryDy=0;entryPerimeter=0;" parent="1" source="cIawQBJBCyzUcV7PF4F9-23" target="xvoymXoU0VaYq1-w-mL5-1" edge="1">
          <mxGeometry relative="1" as="geometry">
            <mxPoint x="610" y="390" as="targetPoint" />
            <Array as="points">
              <mxPoint x="590" y="200" />
              <mxPoint x="250" y="200" />
              <mxPoint x="250" y="390" />
            </Array>
          </mxGeometry>
        </mxCell>
        <mxCell id="cIawQBJBCyzUcV7PF4F9-23" value="" style="sketch=0;points=[[0.015,0.015,0],[0.985,0.015,0],[0.985,0.985,0],[0.015,0.985,0],[0.25,0,0],[0.5,0,0],[0.75,0,0],[1,0.25,0],[1,0.5,0],[1,0.75,0],[0.75,1,0],[0.5,1,0],[0.25,1,0],[0,0.75,0],[0,0.5,0],[0,0.25,0]];verticalLabelPosition=bottom;html=1;verticalAlign=top;aspect=fixed;align=center;pointerEvents=1;shape=mxgraph.cisco19.rect;prIcon=l2_switch;fillColor=#FAFAFA;strokeColor=#005073;" parent="1" vertex="1">
          <mxGeometry x="570" y="210" width="40" height="40" as="geometry" />
        </mxCell>
        <mxCell id="Lshlf3ugooddYHqgElno-2" style="edgeStyle=orthogonalEdgeStyle;rounded=0;orthogonalLoop=1;jettySize=auto;html=1;endArrow=none;endFill=0;" parent="1" source="cIawQBJBCyzUcV7PF4F9-26" edge="1">
          <mxGeometry relative="1" as="geometry">
            <mxPoint x="455" y="200" as="targetPoint" />
          </mxGeometry>
        </mxCell>
        <mxCell id="cIawQBJBCyzUcV7PF4F9-26" value="" style="image;html=1;image=img/lib/clip_art/networking/Wireless_Router_N_128x128.png" parent="1" vertex="1">
          <mxGeometry x="430" y="225" width="50" height="55" as="geometry" />
        </mxCell>
        <mxCell id="cIawQBJBCyzUcV7PF4F9-35" value="" style="ellipse;whiteSpace=wrap;html=1;aspect=fixed;fillColor=#f8cecc;strokeColor=#b85450;" parent="1" vertex="1">
          <mxGeometry x="1010" y="150" width="25" height="25" as="geometry" />
        </mxCell>
        <mxCell id="cIawQBJBCyzUcV7PF4F9-42" value="" style="image;html=1;image=img/lib/clip_art/networking/Wireless_Router_N_128x128.png" parent="1" vertex="1">
          <mxGeometry x="410" y="447.5" width="50" height="55" as="geometry" />
        </mxCell>
        <mxCell id="cIawQBJBCyzUcV7PF4F9-43" value="&lt;span style=&quot;font-size: 15px;&quot;&gt;Wireless router&lt;/span&gt;" style="text;html=1;strokeColor=none;fillColor=none;align=center;verticalAlign=middle;whiteSpace=wrap;rounded=0;" parent="1" vertex="1">
          <mxGeometry x="477" y="472.5" width="143" height="30" as="geometry" />
        </mxCell>
        <mxCell id="cIawQBJBCyzUcV7PF4F9-44" value="" style="fontColor=#0066CC;verticalAlign=top;verticalLabelPosition=bottom;labelPosition=center;align=center;html=1;outlineConnect=0;fillColor=#CCCCCC;strokeColor=#6881B3;gradientColor=none;gradientDirection=north;strokeWidth=2;shape=mxgraph.networks.pc;" parent="1" vertex="1">
          <mxGeometry x="395" y="535" width="70" height="50" as="geometry" />
        </mxCell>
        <mxCell id="cIawQBJBCyzUcV7PF4F9-45" value="&lt;span style=&quot;font-size: 15px;&quot;&gt;Máy tính&lt;/span&gt;" style="text;html=1;strokeColor=none;fillColor=none;align=center;verticalAlign=middle;whiteSpace=wrap;rounded=0;" parent="1" vertex="1">
          <mxGeometry x="477" y="545" width="103" height="30" as="geometry" />
        </mxCell>
        <mxCell id="cIawQBJBCyzUcV7PF4F9-46" value="" style="verticalLabelPosition=bottom;sketch=0;aspect=fixed;html=1;verticalAlign=top;strokeColor=none;align=center;outlineConnect=0;shape=mxgraph.citrix.laptop_2;" parent="1" vertex="1">
          <mxGeometry x="670" y="447.5" width="73.76" height="55" as="geometry" />
        </mxCell>
        <mxCell id="cIawQBJBCyzUcV7PF4F9-47" value="&lt;span style=&quot;font-size: 15px;&quot;&gt;Laptop&lt;/span&gt;" style="text;html=1;strokeColor=none;fillColor=none;align=center;verticalAlign=middle;whiteSpace=wrap;rounded=0;" parent="1" vertex="1">
          <mxGeometry x="757.75" y="472.5" width="90" height="30" as="geometry" />
        </mxCell>
        <mxCell id="cIawQBJBCyzUcV7PF4F9-48" value="" style="sketch=0;points=[[0.015,0.015,0],[0.985,0.015,0],[0.985,0.985,0],[0.015,0.985,0],[0.25,0,0],[0.5,0,0],[0.75,0,0],[1,0.25,0],[1,0.5,0],[1,0.75,0],[0.75,1,0],[0.5,1,0],[0.25,1,0],[0,0.75,0],[0,0.5,0],[0,0.25,0]];verticalLabelPosition=bottom;html=1;verticalAlign=top;aspect=fixed;align=center;pointerEvents=1;shape=mxgraph.cisco19.rect;prIcon=l2_switch;fillColor=#FAFAFA;strokeColor=#005073;" parent="1" vertex="1">
          <mxGeometry x="700" y="540" width="40" height="40" as="geometry" />
        </mxCell>
        <mxCell id="cIawQBJBCyzUcV7PF4F9-49" value="&lt;span style=&quot;font-size: 15px;&quot;&gt;Switch layer 2&lt;/span&gt;" style="text;html=1;strokeColor=none;fillColor=none;align=center;verticalAlign=middle;whiteSpace=wrap;rounded=0;" parent="1" vertex="1">
          <mxGeometry x="775" y="545" width="100" height="30" as="geometry" />
        </mxCell>
        <mxCell id="cIawQBJBCyzUcV7PF4F9-55" value="" style="ellipse;whiteSpace=wrap;html=1;aspect=fixed;fillColor=#f8cecc;strokeColor=#b85450;" parent="1" vertex="1">
          <mxGeometry x="422.5" y="615" width="25" height="25" as="geometry" />
        </mxCell>
        <mxCell id="cIawQBJBCyzUcV7PF4F9-56" value="&lt;span style=&quot;font-size: 15px;&quot;&gt;Đường ống kỹ thuật&lt;/span&gt;" style="text;html=1;strokeColor=none;fillColor=none;align=center;verticalAlign=middle;whiteSpace=wrap;rounded=0;" parent="1" vertex="1">
          <mxGeometry x="472.5" y="610" width="177.5" height="30" as="geometry" />
        </mxCell>
        <mxCell id="9sFVNQ1BYdqKN7KZvEyV-3" style="edgeStyle=orthogonalEdgeStyle;rounded=0;orthogonalLoop=1;jettySize=auto;html=1;endArrow=none;endFill=0;" parent="1" edge="1">
          <mxGeometry relative="1" as="geometry">
            <mxPoint x="560" y="390" as="targetPoint" />
            <mxPoint x="560.0588235294117" y="367.5" as="sourcePoint" />
          </mxGeometry>
        </mxCell>
        <mxCell id="9sFVNQ1BYdqKN7KZvEyV-5" style="edgeStyle=orthogonalEdgeStyle;rounded=0;orthogonalLoop=1;jettySize=auto;html=1;entryX=0.5;entryY=1;entryDx=0;entryDy=0;endArrow=none;endFill=0;" parent="1" source="9sFVNQ1BYdqKN7KZvEyV-4" target="cIawQBJBCyzUcV7PF4F9-35" edge="1">
          <mxGeometry relative="1" as="geometry">
            <Array as="points">
              <mxPoint x="1020" y="230" />
              <mxPoint x="1020" y="175" />
            </Array>
          </mxGeometry>
        </mxCell>
        <mxCell id="9sFVNQ1BYdqKN7KZvEyV-4" value="" style="sketch=0;points=[[0.015,0.015,0],[0.985,0.015,0],[0.985,0.985,0],[0.015,0.985,0],[0.25,0,0],[0.5,0,0],[0.75,0,0],[1,0.25,0],[1,0.5,0],[1,0.75,0],[0.75,1,0],[0.5,1,0],[0.25,1,0],[0,0.75,0],[0,0.5,0],[0,0.25,0]];verticalLabelPosition=bottom;html=1;verticalAlign=top;aspect=fixed;align=center;pointerEvents=1;shape=mxgraph.cisco19.rect;prIcon=l2_switch;fillColor=#FAFAFA;strokeColor=#005073;" parent="1" vertex="1">
          <mxGeometry x="850" y="210" width="40" height="40" as="geometry" />
        </mxCell>
        <mxCell id="9sFVNQ1BYdqKN7KZvEyV-6" style="edgeStyle=orthogonalEdgeStyle;rounded=0;orthogonalLoop=1;jettySize=auto;html=1;endArrow=none;endFill=0;exitX=0.5;exitY=0;exitDx=0;exitDy=0;exitPerimeter=0;" parent="1" source="9sFVNQ1BYdqKN7KZvEyV-4" edge="1">
          <mxGeometry relative="1" as="geometry">
            <mxPoint x="1010" y="390" as="targetPoint" />
            <Array as="points">
              <mxPoint x="870" y="200" />
              <mxPoint x="642" y="200" />
              <mxPoint x="642" y="390" />
            </Array>
            <mxPoint x="982" y="210" as="sourcePoint" />
          </mxGeometry>
        </mxCell>
        <mxCell id="9sFVNQ1BYdqKN7KZvEyV-9" style="edgeStyle=orthogonalEdgeStyle;rounded=0;orthogonalLoop=1;jettySize=auto;html=1;endArrow=none;endFill=0;" parent="1" edge="1">
          <mxGeometry relative="1" as="geometry">
            <mxPoint x="764.2599999999998" y="390" as="targetPoint" />
            <mxPoint x="764.26" y="360" as="sourcePoint" />
          </mxGeometry>
        </mxCell>
        <mxCell id="9sFVNQ1BYdqKN7KZvEyV-16" style="rounded=0;orthogonalLoop=1;jettySize=auto;html=1;entryX=0;entryY=0.75;entryDx=0;entryDy=0;endArrow=none;endFill=0;dashed=1;" parent="1" source="9sFVNQ1BYdqKN7KZvEyV-15" target="cIawQBJBCyzUcV7PF4F9-26" edge="1">
          <mxGeometry relative="1" as="geometry" />
        </mxCell>
        <mxCell id="9sFVNQ1BYdqKN7KZvEyV-15" value="" style="image;html=1;image=img/lib/clip_art/networking/Ip_Camera_128x128.png" parent="1" vertex="1">
          <mxGeometry x="300" y="245" width="41" height="45" as="geometry" />
        </mxCell>
        <mxCell id="9sFVNQ1BYdqKN7KZvEyV-17" value="" style="image;html=1;image=img/lib/clip_art/networking/Ip_Camera_128x128.png" parent="1" vertex="1">
          <mxGeometry x="692.25" y="602.5" width="41" height="45" as="geometry" />
        </mxCell>
        <mxCell id="9sFVNQ1BYdqKN7KZvEyV-18" value="&lt;span style=&quot;font-size: 15px;&quot;&gt;Camera&lt;/span&gt;" style="text;html=1;strokeColor=none;fillColor=none;align=center;verticalAlign=middle;whiteSpace=wrap;rounded=0;" parent="1" vertex="1">
          <mxGeometry x="757.75" y="610" width="90" height="30" as="geometry" />
        </mxCell>
        <mxCell id="74fUHUlQNghTRBlSNIHB-1" value="" style="fontColor=#0066CC;verticalAlign=top;verticalLabelPosition=bottom;labelPosition=center;align=center;html=1;outlineConnect=0;fillColor=#CCCCCC;strokeColor=#6881B3;gradientColor=none;gradientDirection=north;strokeWidth=2;shape=mxgraph.networks.pc;" vertex="1" parent="1">
          <mxGeometry x="720" y="310" width="70" height="50" as="geometry" />
        </mxCell>
        <mxCell id="74fUHUlQNghTRBlSNIHB-3" value="" style="fontColor=#0066CC;verticalAlign=top;verticalLabelPosition=bottom;labelPosition=center;align=center;html=1;outlineConnect=0;fillColor=#CCCCCC;strokeColor=#6881B3;gradientColor=none;gradientDirection=north;strokeWidth=2;shape=mxgraph.networks.pc;" vertex="1" parent="1">
          <mxGeometry x="520" y="315" width="70" height="50" as="geometry" />
        </mxCell>
        <mxCell id="74fUHUlQNghTRBlSNIHB-11" style="rounded=0;orthogonalLoop=1;jettySize=auto;html=1;entryX=1;entryY=0.5;entryDx=0;entryDy=0;dashed=1;endArrow=none;endFill=0;" edge="1" parent="1" source="74fUHUlQNghTRBlSNIHB-7" target="74fUHUlQNghTRBlSNIHB-10">
          <mxGeometry relative="1" as="geometry" />
        </mxCell>
        <mxCell id="74fUHUlQNghTRBlSNIHB-13" style="rounded=0;orthogonalLoop=1;jettySize=auto;html=1;dashed=1;endArrow=none;endFill=0;" edge="1" parent="1" source="74fUHUlQNghTRBlSNIHB-7" target="74fUHUlQNghTRBlSNIHB-12">
          <mxGeometry relative="1" as="geometry" />
        </mxCell>
        <mxCell id="74fUHUlQNghTRBlSNIHB-14" style="edgeStyle=orthogonalEdgeStyle;rounded=0;orthogonalLoop=1;jettySize=auto;html=1;endArrow=none;endFill=0;" edge="1" parent="1" source="74fUHUlQNghTRBlSNIHB-7">
          <mxGeometry relative="1" as="geometry">
            <mxPoint x="782.75" y="200" as="targetPoint" />
          </mxGeometry>
        </mxCell>
        <mxCell id="74fUHUlQNghTRBlSNIHB-7" value="" style="image;html=1;image=img/lib/clip_art/networking/Wireless_Router_N_128x128.png" vertex="1" parent="1">
          <mxGeometry x="757.75" y="235" width="50" height="55" as="geometry" />
        </mxCell>
        <mxCell id="74fUHUlQNghTRBlSNIHB-10" value="" style="image;html=1;image=img/lib/clip_art/networking/Ip_Camera_128x128.png" vertex="1" parent="1">
          <mxGeometry x="661.76" y="240" width="41" height="45" as="geometry" />
        </mxCell>
        <mxCell id="74fUHUlQNghTRBlSNIHB-12" value="" style="verticalLabelPosition=bottom;sketch=0;aspect=fixed;html=1;verticalAlign=top;strokeColor=none;align=center;outlineConnect=0;shape=mxgraph.citrix.laptop_2;" vertex="1" parent="1">
          <mxGeometry x="866.24" y="305" width="73.76" height="55" as="geometry" />
        </mxCell>
      </root>
    </mxGraphModel>
  </diagram>
</mxfile>
